<svg xmlns="http://www.w3.org/2000/svg" height="24px" viewBox="0 0 24 24" width="24px" fill="#FFFFFF">
    <path d="M0 0h24v24H0zm0 0h24v24H0z" fill="none" />

    <path d="M19 11h-1.7c0 .74-.16 1.43-.43 2.05
        l1.23 1.23c.56-.98.9-2.09.9-3.28z
        m-4.02.17
        c0-.06.02-.11.02-.17
        V5
        c0-1.66-1.34-3-3-3
        S9 3.34 9 5
        v.18
        l5.98 5.99z" />

    <path d="M9.02 10.28
        V11
        c0 1.66 1.33 3 2.99 3 .22 0 .44-.03.65-.08
        l1.66 1.66
        c-.71.33-1.5.52-2.31.52-2.76 0-5.3-2.1-5.3-5.1
        H5
        c0 3.41 2.72 6.23 6 6.72
        V21
        h2
        v-3.28
        c.91-.13 1.77-.45 2.54-.9
        L19.73 21 21 19.73 4.27 3z" />

    <path d="M4.27 3L3 4.27
        L9.02 10.28 L19.73 21 21 19.73 4.27 3" fill="#f6bfac" />
</svg>
